<?xml version="1.0" encoding="UTF-8" standalone="no"?>
<!DOCTYPE svg PUBLIC "-//W3C//DTD SVG 1.1//EN"
 "http://www.w3.org/Graphics/SVG/1.1/DTD/svg11.dtd">
<!-- Generated by graphviz version 5.0.0 (20220707.1540)
 -->
<!-- Title: dependencies Pages: 1 -->
<svg width="1923pt" height="247pt"
 viewBox="0.00 0.00 1923.00 246.80" xmlns="http://www.w3.org/2000/svg" xmlns:xlink="http://www.w3.org/1999/xlink">
<g id="graph0" class="graph" transform="scale(1 1) rotate(0) translate(4 242.8)">
<title>dependencies</title>
<polygon fill="white" stroke="transparent" points="-4,4 -4,-242.8 1919,-242.8 1919,4 -4,4"/>
<text text-anchor="middle" x="957.5" y="-8.2" font-family="sans-serif" font-size="14.00">dependencies</text>
<g id="clust1" class="cluster">
<title>cluster_AppModule</title>
<polygon fill="none" stroke="black" stroke-dasharray="1,5" points="8,-32.8 8,-230.8 1907,-230.8 1907,-32.8 8,-32.8"/>
</g>
<g id="clust11" class="cluster">
<title>cluster_AppModule_imports</title>
<polygon fill="none" stroke="black" points="1647,-40.8 1647,-92.8 1899,-92.8 1899,-40.8 1647,-40.8"/>
</g>
<g id="clust13" class="cluster">
<title>cluster_AppModule_bootstrap</title>
<polygon fill="none" stroke="black" points="917,-170.8 917,-222.8 1041,-222.8 1041,-170.8 917,-170.8"/>
</g>
<g id="clust2" class="cluster">
<title>cluster_AppModule_declarations</title>
<polygon fill="none" stroke="black" points="318,-40.8 318,-92.8 1639,-92.8 1639,-40.8 318,-40.8"/>
</g>
<g id="clust14" class="cluster">
<title>cluster_AppModule_providers</title>
<polygon fill="none" stroke="black" points="16,-40.8 16,-92.8 310,-92.8 310,-40.8 16,-40.8"/>
</g>
<!-- AddClientComponent -->
<g id="node1" class="node">
<title>AddClientComponent</title>
<polygon fill="#ffffb3" stroke="black" points="1630.66,-84.8 1491.34,-84.8 1491.34,-48.8 1630.66,-48.8 1630.66,-84.8"/>
<text text-anchor="middle" x="1561" y="-62.6" font-family="Times,serif" font-size="14.00">AddClientComponent</text>
</g>
<!-- AppModule -->
<g id="node9" class="node">
<title>AppModule</title>
<polygon fill="#8dd3c7" stroke="black" points="1020.66,-149.8 1017.66,-153.8 996.66,-153.8 993.66,-149.8 937.34,-149.8 937.34,-113.8 1020.66,-113.8 1020.66,-149.8"/>
<text text-anchor="middle" x="979" y="-127.6" font-family="Times,serif" font-size="14.00">AppModule</text>
</g>
<!-- AddClientComponent&#45;&gt;AppModule -->
<g id="edge1" class="edge">
<title>AddClientComponent&#45;&gt;AppModule</title>
<path fill="none" stroke="black" d="M1561,-84.91C1561,-104.14 1561,-131.8 1561,-131.8 1561,-131.8 1030.86,-131.8 1030.86,-131.8"/>
<polygon fill="black" stroke="black" points="1030.86,-128.3 1020.86,-131.8 1030.86,-135.3 1030.86,-128.3"/>
</g>
<!-- AppComponent -->
<g id="node2" class="node">
<title>AppComponent</title>
<polygon fill="#ffffb3" stroke="black" points="1472.94,-84.8 1367.06,-84.8 1367.06,-48.8 1472.94,-48.8 1472.94,-84.8"/>
<text text-anchor="middle" x="1420" y="-62.6" font-family="Times,serif" font-size="14.00">AppComponent</text>
</g>
<!-- AppComponent&#45;&gt;AppModule -->
<g id="edge2" class="edge">
<title>AppComponent&#45;&gt;AppModule</title>
<path fill="none" stroke="black" d="M1420,-84.82C1420,-102.17 1420,-125.8 1420,-125.8 1420,-125.8 1030.89,-125.8 1030.89,-125.8"/>
<polygon fill="black" stroke="black" points="1030.89,-122.3 1020.89,-125.8 1030.89,-129.3 1030.89,-122.3"/>
</g>
<!-- ClientDetailViewComponent -->
<g id="node3" class="node">
<title>ClientDetailViewComponent</title>
<polygon fill="#ffffb3" stroke="black" points="1349.08,-84.8 1168.92,-84.8 1168.92,-48.8 1349.08,-48.8 1349.08,-84.8"/>
<text text-anchor="middle" x="1259" y="-62.6" font-family="Times,serif" font-size="14.00">ClientDetailViewComponent</text>
</g>
<!-- ClientDetailViewComponent&#45;&gt;AppModule -->
<g id="edge3" class="edge">
<title>ClientDetailViewComponent&#45;&gt;AppModule</title>
<path fill="none" stroke="black" d="M1259,-85.04C1259,-100.37 1259,-119.8 1259,-119.8 1259,-119.8 1030.92,-119.8 1030.92,-119.8"/>
<polygon fill="black" stroke="black" points="1030.92,-116.3 1020.92,-119.8 1030.92,-123.3 1030.92,-116.3"/>
</g>
<!-- ClientListViewComponent -->
<g id="node4" class="node">
<title>ClientListViewComponent</title>
<polygon fill="#ffffb3" stroke="black" points="1150.66,-84.8 983.34,-84.8 983.34,-48.8 1150.66,-48.8 1150.66,-84.8"/>
<text text-anchor="middle" x="1067" y="-62.6" font-family="Times,serif" font-size="14.00">ClientListViewComponent</text>
</g>
<!-- ClientListViewComponent&#45;&gt;AppModule -->
<g id="edge4" class="edge">
<title>ClientListViewComponent&#45;&gt;AppModule</title>
<path fill="none" stroke="black" d="M1002,-84.91C1002,-84.91 1002,-103.79 1002,-103.79"/>
<polygon fill="black" stroke="black" points="998.5,-103.79 1002,-113.79 1005.5,-103.79 998.5,-103.79"/>
</g>
<!-- DetailViewComponent -->
<g id="node5" class="node">
<title>DetailViewComponent</title>
<polygon fill="#ffffb3" stroke="black" points="964.86,-84.8 819.14,-84.8 819.14,-48.8 964.86,-48.8 964.86,-84.8"/>
<text text-anchor="middle" x="892" y="-62.6" font-family="Times,serif" font-size="14.00">DetailViewComponent</text>
</g>
<!-- DetailViewComponent&#45;&gt;AppModule -->
<g id="edge5" class="edge">
<title>DetailViewComponent&#45;&gt;AppModule</title>
<path fill="none" stroke="black" d="M951.05,-84.91C951.05,-84.91 951.05,-103.79 951.05,-103.79"/>
<polygon fill="black" stroke="black" points="947.55,-103.79 951.05,-113.79 954.55,-103.79 947.55,-103.79"/>
</g>
<!-- HomeComponent -->
<g id="node6" class="node">
<title>HomeComponent</title>
<polygon fill="#ffffb3" stroke="black" points="800.55,-84.8 685.45,-84.8 685.45,-48.8 800.55,-48.8 800.55,-84.8"/>
<text text-anchor="middle" x="743" y="-62.6" font-family="Times,serif" font-size="14.00">HomeComponent</text>
</g>
<!-- HomeComponent&#45;&gt;AppModule -->
<g id="edge6" class="edge">
<title>HomeComponent&#45;&gt;AppModule</title>
<path fill="none" stroke="black" d="M743,-85.04C743,-100.37 743,-119.8 743,-119.8 743,-119.8 927.08,-119.8 927.08,-119.8"/>
<polygon fill="black" stroke="black" points="927.08,-123.3 937.08,-119.8 927.08,-116.3 927.08,-123.3"/>
</g>
<!-- ListViewComponent -->
<g id="node7" class="node">
<title>ListViewComponent</title>
<polygon fill="#ffffb3" stroke="black" points="667.94,-84.8 534.06,-84.8 534.06,-48.8 667.94,-48.8 667.94,-84.8"/>
<text text-anchor="middle" x="601" y="-62.6" font-family="Times,serif" font-size="14.00">ListViewComponent</text>
</g>
<!-- ListViewComponent&#45;&gt;AppModule -->
<g id="edge7" class="edge">
<title>ListViewComponent&#45;&gt;AppModule</title>
<path fill="none" stroke="black" d="M601,-84.82C601,-102.17 601,-125.8 601,-125.8 601,-125.8 927.1,-125.8 927.1,-125.8"/>
<polygon fill="black" stroke="black" points="927.1,-129.3 937.1,-125.8 927.1,-122.3 927.1,-129.3"/>
</g>
<!-- ViewAfterPaymentComponent -->
<g id="node8" class="node">
<title>ViewAfterPaymentComponent</title>
<polygon fill="#ffffb3" stroke="black" points="516.19,-84.8 325.81,-84.8 325.81,-48.8 516.19,-48.8 516.19,-84.8"/>
<text text-anchor="middle" x="421" y="-62.6" font-family="Times,serif" font-size="14.00">ViewAfterPaymentComponent</text>
</g>
<!-- ViewAfterPaymentComponent&#45;&gt;AppModule -->
<g id="edge8" class="edge">
<title>ViewAfterPaymentComponent&#45;&gt;AppModule</title>
<path fill="none" stroke="black" d="M421,-84.91C421,-104.14 421,-131.8 421,-131.8 421,-131.8 927.06,-131.8 927.06,-131.8"/>
<polygon fill="black" stroke="black" points="927.06,-135.3 937.06,-131.8 927.06,-128.3 927.06,-135.3"/>
</g>
<!-- AppComponent  -->
<g id="node12" class="node">
<title>AppComponent </title>
<polygon fill="#80b1d3" stroke="black" points="1033.44,-214.8 924.56,-214.8 924.56,-178.8 1033.44,-178.8 1033.44,-214.8"/>
<text text-anchor="middle" x="979" y="-192.6" font-family="Times,serif" font-size="14.00">AppComponent </text>
</g>
<!-- AppModule&#45;&gt;AppComponent  -->
<g id="edge11" class="edge">
<title>AppModule&#45;&gt;AppComponent </title>
<path fill="none" stroke="black" stroke-dasharray="1,5" d="M979,-149.91C979,-149.91 979,-168.79 979,-168.79"/>
<polygon fill="black" stroke="black" points="975.5,-168.79 979,-178.79 982.5,-168.79 975.5,-168.79"/>
</g>
<!-- AppRoutingModule -->
<g id="node10" class="node">
<title>AppRoutingModule</title>
<polygon fill="#8dd3c7" stroke="black" points="1891.28,-84.8 1888.28,-88.8 1867.28,-88.8 1864.28,-84.8 1762.72,-84.8 1762.72,-48.8 1891.28,-48.8 1891.28,-84.8"/>
<text text-anchor="middle" x="1827" y="-62.6" font-family="Times,serif" font-size="14.00">AppRoutingModule</text>
</g>
<!-- AppRoutingModule&#45;&gt;AppModule -->
<g id="edge9" class="edge">
<title>AppRoutingModule&#45;&gt;AppModule</title>
<path fill="none" stroke="black" d="M1827,-85.05C1827,-107.82 1827,-143.8 1827,-143.8 1827,-143.8 1030.76,-143.8 1030.76,-143.8"/>
<polygon fill="black" stroke="black" points="1030.76,-140.3 1020.76,-143.8 1030.76,-147.3 1030.76,-140.3"/>
</g>
<!-- RouterOutlet -->
<g id="node11" class="node">
<title>RouterOutlet</title>
<polygon fill="#8dd3c7" stroke="black" points="1744.6,-84.8 1741.6,-88.8 1720.6,-88.8 1717.6,-84.8 1655.4,-84.8 1655.4,-48.8 1744.6,-48.8 1744.6,-84.8"/>
<text text-anchor="middle" x="1700" y="-62.6" font-family="Times,serif" font-size="14.00">RouterOutlet</text>
</g>
<!-- RouterOutlet&#45;&gt;AppModule -->
<g id="edge10" class="edge">
<title>RouterOutlet&#45;&gt;AppModule</title>
<path fill="none" stroke="black" d="M1700,-85.08C1700,-106.12 1700,-137.8 1700,-137.8 1700,-137.8 1030.88,-137.8 1030.88,-137.8"/>
<polygon fill="black" stroke="black" points="1030.88,-134.3 1020.88,-137.8 1030.88,-141.3 1030.88,-134.3"/>
</g>
<!-- ClientsService -->
<g id="node13" class="node">
<title>ClientsService</title>
<ellipse fill="#fdb462" stroke="black" cx="235" cy="-66.8" rx="67.21" ry="18"/>
<text text-anchor="middle" x="235" y="-62.6" font-family="Times,serif" font-size="14.00">ClientsService</text>
</g>
<!-- ClientsService&#45;&gt;AppModule -->
<g id="edge12" class="edge">
<title>ClientsService&#45;&gt;AppModule</title>
<path fill="none" stroke="black" d="M235,-85.08C235,-106.12 235,-137.8 235,-137.8 235,-137.8 927.14,-137.8 927.14,-137.8"/>
<polygon fill="black" stroke="black" points="927.14,-141.3 937.14,-137.8 927.14,-134.3 927.14,-141.3"/>
</g>
<!-- GameService -->
<g id="node14" class="node">
<title>GameService</title>
<ellipse fill="#fdb462" stroke="black" cx="87" cy="-66.8" rx="63.1" ry="18"/>
<text text-anchor="middle" x="87" y="-62.6" font-family="Times,serif" font-size="14.00">GameService</text>
</g>
<!-- GameService&#45;&gt;AppModule -->
<g id="edge13" class="edge">
<title>GameService&#45;&gt;AppModule</title>
<path fill="none" stroke="black" d="M87,-85.05C87,-107.82 87,-143.8 87,-143.8 87,-143.8 927.17,-143.8 927.17,-143.8"/>
<polygon fill="black" stroke="black" points="927.17,-147.3 937.17,-143.8 927.17,-140.3 927.17,-147.3"/>
</g>
</g>
</svg>
