<?xml version="1.0" encoding="UTF-8" standalone="no"?>
<!DOCTYPE svg PUBLIC "-//W3C//DTD SVG 1.1//EN"
 "http://www.w3.org/Graphics/SVG/1.1/DTD/svg11.dtd">
<!-- Generated by graphviz version 5.0.0 (20220707.1540)
 -->
<!-- Title: dependencies Pages: 1 -->
<svg width="1923pt" height="247pt"
 viewBox="0.00 0.00 1923.00 246.80" xmlns="http://www.w3.org/2000/svg" xmlns:xlink="http://www.w3.org/1999/xlink">
<g id="graph0" class="graph" transform="scale(1 1) rotate(0) translate(4 242.8)">
<title>dependencies</title>
<polygon fill="white" stroke="transparent" points="-4,4 -4,-242.8 1919,-242.8 1919,4 -4,4"/>
<text text-anchor="middle" x="957.5" y="-8.2" font-family="sans-serif" font-size="14.00">dependencies</text>
<g id="clust1" class="cluster">
<title>cluster_AppModule</title>
<polygon fill="none" stroke="black" stroke-dasharray="1,5" points="8,-32.8 8,-230.8 1907,-230.8 1907,-32.8 8,-32.8"/>
</g>
<g id="clust2" class="cluster">
<title>cluster_AppModule_declarations</title>
<polygon fill="none" stroke="black" points="578,-40.8 578,-92.8 1899,-92.8 1899,-40.8 578,-40.8"/>
</g>
<g id="clust11" class="cluster">
<title>cluster_AppModule_imports</title>
<polygon fill="none" stroke="black" points="318,-40.8 318,-92.8 570,-92.8 570,-40.8 318,-40.8"/>
</g>
<g id="clust13" class="cluster">
<title>cluster_AppModule_bootstrap</title>
<polygon fill="none" stroke="black" points="870,-170.8 870,-222.8 994,-222.8 994,-170.8 870,-170.8"/>
</g>
<g id="clust14" class="cluster">
<title>cluster_AppModule_providers</title>
<polygon fill="none" stroke="black" points="16,-40.8 16,-92.8 310,-92.8 310,-40.8 16,-40.8"/>
</g>
<!-- AddClientComponent -->
<g id="node1" class="node">
<title>AddClientComponent</title>
<polygon fill="#ffffb3" stroke="black" points="1890.66,-84.8 1751.34,-84.8 1751.34,-48.8 1890.66,-48.8 1890.66,-84.8"/>
<text text-anchor="middle" x="1821" y="-62.6" font-family="Times,serif" font-size="14.00">AddClientComponent</text>
</g>
<!-- AppModule -->
<g id="node9" class="node">
<title>AppModule</title>
<polygon fill="#8dd3c7" stroke="black" points="973.66,-149.8 970.66,-153.8 949.66,-153.8 946.66,-149.8 890.34,-149.8 890.34,-113.8 973.66,-113.8 973.66,-149.8"/>
<text text-anchor="middle" x="932" y="-127.6" font-family="Times,serif" font-size="14.00">AppModule</text>
</g>
<!-- AddClientComponent&#45;&gt;AppModule -->
<g id="edge1" class="edge">
<title>AddClientComponent&#45;&gt;AppModule</title>
<path fill="none" stroke="black" d="M1821,-85.05C1821,-107.82 1821,-143.8 1821,-143.8 1821,-143.8 983.69,-143.8 983.69,-143.8"/>
<polygon fill="black" stroke="black" points="983.69,-140.3 973.69,-143.8 983.69,-147.3 983.69,-140.3"/>
</g>
<!-- AppComponent -->
<g id="node2" class="node">
<title>AppComponent</title>
<polygon fill="#ffffb3" stroke="black" points="1732.94,-84.8 1627.06,-84.8 1627.06,-48.8 1732.94,-48.8 1732.94,-84.8"/>
<text text-anchor="middle" x="1680" y="-62.6" font-family="Times,serif" font-size="14.00">AppComponent</text>
</g>
<!-- AppComponent&#45;&gt;AppModule -->
<g id="edge2" class="edge">
<title>AppComponent&#45;&gt;AppModule</title>
<path fill="none" stroke="black" d="M1680,-85.08C1680,-106.12 1680,-137.8 1680,-137.8 1680,-137.8 983.82,-137.8 983.82,-137.8"/>
<polygon fill="black" stroke="black" points="983.82,-134.3 973.82,-137.8 983.82,-141.3 983.82,-134.3"/>
</g>
<!-- ClientDetailViewComponent -->
<g id="node3" class="node">
<title>ClientDetailViewComponent</title>
<polygon fill="#ffffb3" stroke="black" points="1609.08,-84.8 1428.92,-84.8 1428.92,-48.8 1609.08,-48.8 1609.08,-84.8"/>
<text text-anchor="middle" x="1519" y="-62.6" font-family="Times,serif" font-size="14.00">ClientDetailViewComponent</text>
</g>
<!-- ClientDetailViewComponent&#45;&gt;AppModule -->
<g id="edge3" class="edge">
<title>ClientDetailViewComponent&#45;&gt;AppModule</title>
<path fill="none" stroke="black" d="M1519,-84.91C1519,-104.14 1519,-131.8 1519,-131.8 1519,-131.8 983.75,-131.8 983.75,-131.8"/>
<polygon fill="black" stroke="black" points="983.75,-128.3 973.75,-131.8 983.74,-135.3 983.75,-128.3"/>
</g>
<!-- ClientListViewComponent -->
<g id="node4" class="node">
<title>ClientListViewComponent</title>
<polygon fill="#ffffb3" stroke="black" points="1410.66,-84.8 1243.34,-84.8 1243.34,-48.8 1410.66,-48.8 1410.66,-84.8"/>
<text text-anchor="middle" x="1327" y="-62.6" font-family="Times,serif" font-size="14.00">ClientListViewComponent</text>
</g>
<!-- ClientListViewComponent&#45;&gt;AppModule -->
<g id="edge4" class="edge">
<title>ClientListViewComponent&#45;&gt;AppModule</title>
<path fill="none" stroke="black" d="M1327,-84.82C1327,-102.17 1327,-125.8 1327,-125.8 1327,-125.8 983.9,-125.8 983.9,-125.8"/>
<polygon fill="black" stroke="black" points="983.9,-122.3 973.9,-125.8 983.9,-129.3 983.9,-122.3"/>
</g>
<!-- DetailViewComponent -->
<g id="node5" class="node">
<title>DetailViewComponent</title>
<polygon fill="#ffffb3" stroke="black" points="1224.86,-84.8 1079.14,-84.8 1079.14,-48.8 1224.86,-48.8 1224.86,-84.8"/>
<text text-anchor="middle" x="1152" y="-62.6" font-family="Times,serif" font-size="14.00">DetailViewComponent</text>
</g>
<!-- DetailViewComponent&#45;&gt;AppModule -->
<g id="edge5" class="edge">
<title>DetailViewComponent&#45;&gt;AppModule</title>
<path fill="none" stroke="black" d="M1152,-85.04C1152,-100.37 1152,-119.8 1152,-119.8 1152,-119.8 983.9,-119.8 983.9,-119.8"/>
<polygon fill="black" stroke="black" points="983.9,-116.3 973.9,-119.8 983.9,-123.3 983.9,-116.3"/>
</g>
<!-- HomeComponent -->
<g id="node6" class="node">
<title>HomeComponent</title>
<polygon fill="#ffffb3" stroke="black" points="1060.55,-84.8 945.45,-84.8 945.45,-48.8 1060.55,-48.8 1060.55,-84.8"/>
<text text-anchor="middle" x="1003" y="-62.6" font-family="Times,serif" font-size="14.00">HomeComponent</text>
</g>
<!-- HomeComponent&#45;&gt;AppModule -->
<g id="edge6" class="edge">
<title>HomeComponent&#45;&gt;AppModule</title>
<path fill="none" stroke="black" d="M959.53,-84.91C959.53,-84.91 959.53,-103.79 959.53,-103.79"/>
<polygon fill="black" stroke="black" points="956.03,-103.79 959.53,-113.79 963.03,-103.79 956.03,-103.79"/>
</g>
<!-- ListViewComponent -->
<g id="node7" class="node">
<title>ListViewComponent</title>
<polygon fill="#ffffb3" stroke="black" points="927.94,-84.8 794.06,-84.8 794.06,-48.8 927.94,-48.8 927.94,-84.8"/>
<text text-anchor="middle" x="861" y="-62.6" font-family="Times,serif" font-size="14.00">ListViewComponent</text>
</g>
<!-- ListViewComponent&#45;&gt;AppModule -->
<g id="edge7" class="edge">
<title>ListViewComponent&#45;&gt;AppModule</title>
<path fill="none" stroke="black" d="M908.94,-84.91C908.94,-84.91 908.94,-103.79 908.94,-103.79"/>
<polygon fill="black" stroke="black" points="905.44,-103.79 908.94,-113.79 912.44,-103.79 905.44,-103.79"/>
</g>
<!-- ViewAfterPaymentComponent -->
<g id="node8" class="node">
<title>ViewAfterPaymentComponent</title>
<polygon fill="#ffffb3" stroke="black" points="776.19,-84.8 585.81,-84.8 585.81,-48.8 776.19,-48.8 776.19,-84.8"/>
<text text-anchor="middle" x="681" y="-62.6" font-family="Times,serif" font-size="14.00">ViewAfterPaymentComponent</text>
</g>
<!-- ViewAfterPaymentComponent&#45;&gt;AppModule -->
<g id="edge8" class="edge">
<title>ViewAfterPaymentComponent&#45;&gt;AppModule</title>
<path fill="none" stroke="black" d="M681,-85.04C681,-100.37 681,-119.8 681,-119.8 681,-119.8 880.27,-119.8 880.27,-119.8"/>
<polygon fill="black" stroke="black" points="880.27,-123.3 890.27,-119.8 880.27,-116.3 880.27,-123.3"/>
</g>
<!-- AppComponent  -->
<g id="node12" class="node">
<title>AppComponent </title>
<polygon fill="#80b1d3" stroke="black" points="986.44,-214.8 877.56,-214.8 877.56,-178.8 986.44,-178.8 986.44,-214.8"/>
<text text-anchor="middle" x="932" y="-192.6" font-family="Times,serif" font-size="14.00">AppComponent </text>
</g>
<!-- AppModule&#45;&gt;AppComponent  -->
<g id="edge11" class="edge">
<title>AppModule&#45;&gt;AppComponent </title>
<path fill="none" stroke="black" stroke-dasharray="1,5" d="M932,-149.91C932,-149.91 932,-168.79 932,-168.79"/>
<polygon fill="black" stroke="black" points="928.5,-168.79 932,-178.79 935.5,-168.79 928.5,-168.79"/>
</g>
<!-- AppRoutingModule -->
<g id="node10" class="node">
<title>AppRoutingModule</title>
<polygon fill="#8dd3c7" stroke="black" points="562.28,-84.8 559.28,-88.8 538.28,-88.8 535.28,-84.8 433.72,-84.8 433.72,-48.8 562.28,-48.8 562.28,-84.8"/>
<text text-anchor="middle" x="498" y="-62.6" font-family="Times,serif" font-size="14.00">AppRoutingModule</text>
</g>
<!-- AppRoutingModule&#45;&gt;AppModule -->
<g id="edge9" class="edge">
<title>AppRoutingModule&#45;&gt;AppModule</title>
<path fill="none" stroke="black" d="M498,-84.82C498,-102.17 498,-125.8 498,-125.8 498,-125.8 879.99,-125.8 879.99,-125.8"/>
<polygon fill="black" stroke="black" points="879.99,-129.3 889.99,-125.8 879.99,-122.3 879.99,-129.3"/>
</g>
<!-- RouterOutlet -->
<g id="node11" class="node">
<title>RouterOutlet</title>
<polygon fill="#8dd3c7" stroke="black" points="415.6,-84.8 412.6,-88.8 391.6,-88.8 388.6,-84.8 326.4,-84.8 326.4,-48.8 415.6,-48.8 415.6,-84.8"/>
<text text-anchor="middle" x="371" y="-62.6" font-family="Times,serif" font-size="14.00">RouterOutlet</text>
</g>
<!-- RouterOutlet&#45;&gt;AppModule -->
<g id="edge10" class="edge">
<title>RouterOutlet&#45;&gt;AppModule</title>
<path fill="none" stroke="black" d="M371,-84.91C371,-104.14 371,-131.8 371,-131.8 371,-131.8 880.29,-131.8 880.29,-131.8"/>
<polygon fill="black" stroke="black" points="880.29,-135.3 890.29,-131.8 880.29,-128.3 880.29,-135.3"/>
</g>
<!-- ClientsService -->
<g id="node13" class="node">
<title>ClientsService</title>
<ellipse fill="#fdb462" stroke="black" cx="235" cy="-66.8" rx="67.21" ry="18"/>
<text text-anchor="middle" x="235" y="-62.6" font-family="Times,serif" font-size="14.00">ClientsService</text>
</g>
<!-- ClientsService&#45;&gt;AppModule -->
<g id="edge12" class="edge">
<title>ClientsService&#45;&gt;AppModule</title>
<path fill="none" stroke="black" d="M235,-85.08C235,-106.12 235,-137.8 235,-137.8 235,-137.8 880.23,-137.8 880.23,-137.8"/>
<polygon fill="black" stroke="black" points="880.23,-141.3 890.23,-137.8 880.23,-134.3 880.23,-141.3"/>
</g>
<!-- GameService -->
<g id="node14" class="node">
<title>GameService</title>
<ellipse fill="#fdb462" stroke="black" cx="87" cy="-66.8" rx="63.1" ry="18"/>
<text text-anchor="middle" x="87" y="-62.6" font-family="Times,serif" font-size="14.00">GameService</text>
</g>
<!-- GameService&#45;&gt;AppModule -->
<g id="edge13" class="edge">
<title>GameService&#45;&gt;AppModule</title>
<path fill="none" stroke="black" d="M87,-85.05C87,-107.82 87,-143.8 87,-143.8 87,-143.8 880.1,-143.8 880.1,-143.8"/>
<polygon fill="black" stroke="black" points="880.1,-147.3 890.1,-143.8 880.1,-140.3 880.1,-147.3"/>
</g>
</g>
</svg>
